<?xml version="1.0" encoding="UTF-8" standalone="no"?>
<!-- Created with Inkscape (http://www.inkscape.org/) -->
<svg
   xmlns:svg="http://www.w3.org/2000/svg"
   xmlns="http://www.w3.org/2000/svg"
   version="1.0"
   width="620"
   height="327.04001"
   id="svg2">
  <defs
     id="defs4" />
  <g
     transform="translate(2475.2144,-1767.3272)"
     id="layer1">
    <path
       d="M -2214.4953,2083.9518 C -2214.4953,2083.2229 -2213.3167,2081.7638 -2211.3256,2080.0278 C -2208.3485,2077.4321 -2207.8106,2076.2029 -2209.0911,2074.9224 C -2209.6057,2074.4079 -2209.9483,2074.2663 -2210.6796,2074.2663 C -2211.4108,2074.2663 -2211.7534,2074.4079 -2212.268,2074.9224 C -2212.6289,2075.2833 -2212.9241,2075.7488 -2212.9241,2075.9568 C -2212.9241,2076.2573 -2213.0509,2076.3033 -2213.5409,2076.1803 C -2214.358,2075.9752 -2214.3539,2075.9837 -2214.0623,2075.1 C -2213.1999,2072.487 -2209.1827,2072.1096 -2207.5777,2074.4908 C -2207.154,2075.1195 -2207.0679,2075.4882 -2207.147,2076.337 C -2207.2812,2077.7792 -2208.0375,2078.8412 -2210.3936,2080.8965 C -2211.4768,2081.8414 -2212.3967,2082.7057 -2212.4378,2082.8173 C -2212.4798,2082.9311 -2211.3216,2083.0202 -2209.8004,2083.0202 L -2207.0882,2083.0202 L -2207.0882,2083.6935 L -2207.0882,2084.3669 L -2210.7918,2084.3669 C -2214.2452,2084.3669 -2214.4953,2084.3389 -2214.4953,2083.9518 z M -2329.4176,2077.072 C -2329.4176,2076.8869 -2329.5691,2076.7353 -2329.7543,2076.7353 C -2330.0486,2076.7353 -2330.091,2075.4634 -2330.091,2066.6348 C -2330.091,2061.0794 -2330.13,2056.5342 -2330.1776,2056.5342 C -2330.2253,2056.5342 -2331.714,2057.3792 -2333.4859,2058.4121 C -2336.3391,2060.0752 -2336.7591,2060.2576 -2337.1589,2060.0066 C -2338.9722,2058.8682 -2362.2371,2045.5357 -2362.4103,2045.5357 C -2362.5312,2045.5357 -2368.3578,2048.8437 -2375.3583,2052.8867 C -2382.3588,2056.9298 -2388.143,2060.2192 -2388.2121,2060.1966 C -2388.2812,2060.174 -2394.027,2056.8661 -2400.9806,2052.8456 C -2407.9341,2048.8252 -2413.7227,2045.5357 -2413.8439,2045.5357 C -2413.9652,2045.5357 -2418.0735,2047.8525 -2422.9735,2050.6842 C -2427.8734,2053.5158 -2432.0412,2055.8933 -2432.2353,2055.9676 C -2432.4677,2056.0565 -2432.6703,2055.9222 -2432.829,2055.5739 C -2433.0634,2055.0595 -2432.8185,2054.9001 -2423.7784,2049.6814 L -2414.487,2044.3176 L -2414.487,2034.2649 L -2414.487,2024.2123 L -2413.8136,2024.2123 L -2413.1403,2024.2123 L -2413.1403,2034.2863 L -2413.1403,2044.3602 L -2400.739,2051.5134 C -2393.9183,2055.4476 -2388.2185,2058.6537 -2388.0729,2058.638 C -2387.9272,2058.6223 -2382.094,2055.3117 -2375.1101,2051.2811 L -2362.4121,2043.9529 L -2350.0112,2051.1071 C -2343.1907,2055.042 -2337.3946,2058.3752 -2337.1309,2058.5143 C -2336.7149,2058.7337 -2336.2251,2058.5211 -2333.4273,2056.9071 L -2330.2032,2055.0472 L -2330.1461,2029.3047 C -2330.0959,2006.6298 -2330.0491,2003.5622 -2329.7533,2003.5622 C -2329.5687,2003.5622 -2329.4176,2003.4107 -2329.4176,2003.2255 C -2329.4176,2002.9476 -2329.0061,2002.8888 -2327.0608,2002.8888 L -2324.704,2002.8888 L -2324.704,2003.5622 L -2324.704,2004.2356 L -2326.7241,2004.2356 L -2328.7442,2004.2356 L -2328.7442,2029.1503 C -2328.7442,2042.8535 -2328.6914,2054.0651 -2328.6268,2054.0651 C -2328.5623,2054.0651 -2324.724,2051.8781 -2320.0974,2049.2051 C -2314.4526,2045.9438 -2311.6896,2044.227 -2311.6979,2043.9864 C -2311.7048,2043.7892 -2312.1858,2039.2846 -2312.7669,2033.9762 L -2313.8235,2024.3245 L -2311.0406,2024.2615 C -2309.51,2024.2268 -2308.2305,2024.2268 -2308.1974,2024.2615 C -2308.1643,2024.2961 -2308.6254,2028.8177 -2309.2221,2034.3094 C -2310.0386,2041.823 -2310.2416,2044.3361 -2310.0423,2044.4634 C -2309.8967,2044.5565 -2304.2611,2047.8182 -2297.5188,2051.7118 L -2285.26,2058.791 L -2272.4103,2051.3706 L -2259.5606,2043.9502 L -2246.6985,2051.3715 L -2233.8365,2058.7928 L -2227.7572,2055.2818 L -2221.678,2051.7707 L -2221.678,2028.0031 L -2221.678,2004.2356 L -2223.5859,2004.2356 L -2225.4938,2004.2356 L -2225.4938,2003.5622 L -2225.4938,2002.8888 L -2223.2492,2002.8888 C -2221.4036,2002.8888 -2221.0046,2002.9487 -2221.0046,2003.2255 C -2221.0046,2003.4107 -2220.8536,2003.5622 -2220.6689,2003.5622 C -2220.3735,2003.5622 -2220.3264,2006.4009 -2220.2761,2027.2458 L -2220.219,2050.9295 L -2214.5514,2047.6518 L -2208.8839,2044.3742 L -2208.8839,2034.2932 L -2208.8839,2024.2123 L -2208.2105,2024.2123 L -2207.5371,2024.2123 L -2207.5352,2034.2568 L -2207.5333,2044.3012 L -2194.9717,2051.5481 L -2182.4102,2058.7949 L -2169.6978,2051.4545 C -2162.706,2047.4174 -2156.8579,2044.1142 -2156.702,2044.1142 C -2156.5461,2044.1142 -2152.1659,2046.5666 -2146.9682,2049.564 C -2138.0005,2054.7355 -2137.5306,2055.0383 -2137.767,2055.4934 C -2137.904,2055.7572 -2138.0468,2056.009 -2138.0843,2056.0529 C -2138.1218,2056.0969 -2142.2746,2053.7498 -2147.3128,2050.8372 C -2152.3509,2047.9246 -2156.5282,2045.515 -2156.5957,2045.4826 C -2156.6631,2045.4501 -2162.4434,2048.7315 -2169.4407,2052.7745 C -2176.438,2056.8175 -2182.2737,2060.1255 -2182.4089,2060.1255 C -2182.544,2060.1255 -2188.3687,2056.8244 -2195.3526,2052.7898 L -2208.0505,2045.4541 L -2209.1967,2046.0597 C -2209.8271,2046.3928 -2212.565,2047.9565 -2215.2809,2049.5347 L -2220.219,2052.4041 L -2220.277,2064.5697 C -2220.3277,2075.1768 -2220.378,2076.7353 -2220.6698,2076.7353 C -2220.854,2076.7353 -2221.0046,2076.8869 -2221.0046,2077.072 C -2221.0046,2077.3489 -2221.4036,2077.4087 -2223.2492,2077.4087 L -2225.4938,2077.4087 L -2225.4938,2076.7353 L -2225.4938,2076.062 L -2223.5859,2076.062 L -2221.678,2076.062 L -2221.678,2064.7029 C -2221.678,2055.525 -2221.7335,2053.3651 -2221.9673,2053.4547 C -2222.1264,2053.5158 -2224.8082,2055.0417 -2227.9268,2056.8456 C -2231.0455,2058.6495 -2233.7075,2060.1255 -2233.8424,2060.1255 C -2233.9774,2060.1255 -2239.7678,2056.8428 -2246.7101,2052.8306 C -2253.6524,2048.8184 -2259.4336,2045.5357 -2259.5573,2045.5357 C -2259.681,2045.5357 -2265.5163,2048.8504 -2272.5245,2052.9016 L -2285.2667,2060.2674 L -2297.8588,2052.984 C -2304.7845,2048.9781 -2310.6085,2045.6567 -2310.801,2045.6031 C -2310.9935,2045.5496 -2315.1095,2047.7936 -2319.9476,2050.5899 L -2328.7442,2055.6741 L -2328.7442,2065.868 L -2328.7442,2076.062 L -2326.7241,2076.062 L -2324.704,2076.062 L -2324.704,2076.7353 L -2324.704,2077.4087 L -2327.0608,2077.4087 C -2329.0061,2077.4087 -2329.4176,2077.3499 -2329.4176,2077.072 z M -2082.224,2073.5058 C -2083.6532,2073.0386 -2084.8789,2071.9426 -2085.5887,2070.4972 C -2086.1439,2069.3667 -2086.2178,2068.9653 -2086.2178,2067.0837 C -2086.2178,2065.2002 -2086.1442,2064.8013 -2085.5863,2063.6653 C -2084.2356,2060.9147 -2081.4333,2059.7593 -2078.3465,2060.6802 C -2075.9679,2061.3898 -2074.5028,2063.4691 -2074.2769,2066.4557 C -2073.9638,2070.5962 -2076.2003,2073.5062 -2079.8666,2073.7287 C -2080.6959,2073.7791 -2081.6699,2073.6869 -2082.224,2073.5058 z M -2077.8603,2071.4321 C -2076.7745,2070.5666 -2076.216,2069.425 -2076.0653,2067.763 C -2075.8343,2065.2151 -2076.7826,2063.1578 -2078.5602,2062.3506 C -2080.8807,2061.2968 -2083.477,2062.4822 -2084.203,2064.9269 C -2085.3989,2068.9539 -2083.3985,2072.4033 -2079.9926,2072.1874 C -2078.9731,2072.1228 -2078.5296,2071.9657 -2077.8603,2071.4321 z M -2451.4693,2069.7779 C -2451.8721,2069.5323 -2452.3734,2068.9711 -2452.5833,2068.5309 C -2452.9151,2067.8352 -2452.9221,2067.7034 -2452.6366,2067.5228 C -2452.0789,2067.1701 -2451.8124,2067.2815 -2451.5189,2067.9901 C -2451.1858,2068.7942 -2450.689,2069.1038 -2449.7314,2069.1038 C -2448.4088,2069.1038 -2447.5228,2067.5927 -2448.1539,2066.4135 C -2448.4221,2065.9123 -2449.7296,2065.4415 -2450.2735,2065.6502 C -2450.5835,2065.7692 -2450.6485,2065.6963 -2450.5883,2065.2973 C -2450.5348,2064.943 -2450.2539,2064.706 -2449.637,2064.495 C -2448.3062,2064.0396 -2447.9903,2063.2088 -2448.829,2062.3701 C -2449.6643,2061.5348 -2451.3778,2062.0482 -2451.7798,2063.2543 C -2451.8458,2063.4523 -2452.0479,2063.4983 -2452.3835,2063.3918 C -2453.0209,2063.1895 -2452.8689,2062.5354 -2451.9695,2061.6096 C -2451.0775,2060.6915 -2449.4777,2060.5456 -2448.3974,2061.2839 C -2447.1582,2062.1307 -2446.928,2063.6956 -2447.918,2064.5432 C -2448.3275,2064.8939 -2448.3163,2064.9294 -2447.5751,2065.6284 C -2445.2098,2067.8592 -2448.6332,2071.507 -2451.4693,2069.7779 z M -1973.8236,2067.5333 C -1974.2264,2067.2877 -1974.7278,2066.7266 -1974.9377,2066.2863 C -1975.2695,2065.5906 -1975.2764,2065.4588 -1974.9909,2065.2782 C -1974.4333,2064.9255 -1974.1668,2065.0369 -1973.8733,2065.7455 C -1973.5402,2066.5497 -1973.0433,2066.8592 -1972.0857,2066.8592 C -1970.7632,2066.8592 -1969.8772,2065.3482 -1970.5083,2064.1689 C -1970.7765,2063.6677 -1972.0839,2063.1969 -1972.6278,2063.4056 C -1972.9378,2063.5246 -1973.0029,2063.4517 -1972.9427,2063.0527 C -1972.8892,2062.6984 -1972.6083,2062.4615 -1971.9914,2062.2504 C -1970.6606,2061.7951 -1970.3446,2060.9642 -1971.1834,2060.1255 C -1972.0187,2059.2902 -1973.7322,2059.8037 -1974.1342,2061.0097 C -1974.2002,2061.2077 -1974.4022,2061.2537 -1974.7379,2061.1472 C -1975.3752,2060.9449 -1975.2233,2060.2909 -1974.3238,2059.365 C -1973.4319,2058.4469 -1971.8321,2058.3011 -1970.7517,2059.0393 C -1969.5126,2059.8861 -1969.2824,2061.451 -1970.2723,2062.2986 C -1970.6819,2062.6493 -1970.6707,2062.6848 -1969.9295,2063.3838 C -1967.5642,2065.6146 -1970.9876,2069.2625 -1973.8236,2067.5333 z M -2441.4929,2066.3096 C -2442.9068,2065.8053 -2443.6455,2065.0624 -2444.5175,2063.2679 C -2445.0376,2062.1976 -2445.1179,2061.7498 -2445.1214,2059.901 C -2445.1259,2057.5439 -2444.6641,2056.1277 -2443.4861,2054.8863 C -2442.1467,2053.4748 -2439.6593,2052.8352 -2437.637,2053.3822 C -2436.4646,2053.6994 -2435.0537,2054.9682 -2434.5803,2056.1312 L -2434.2418,2056.9627 L -2435.0822,2057.195 C -2435.5445,2057.3228 -2435.9483,2057.3526 -2435.9797,2057.2613 C -2436.2075,2056.5979 -2437.0489,2055.5589 -2437.6602,2055.1862 C -2439.2839,2054.1962 -2441.7703,2054.9616 -2442.7686,2056.7586 C -2443.2569,2057.6376 -2443.3298,2058.0455 -2443.3298,2059.901 C -2443.3298,2061.7566 -2443.2569,2062.1645 -2442.7686,2063.0434 C -2442.0191,2064.3926 -2440.6323,2065.1322 -2439.1045,2064.9973 C -2437.7549,2064.8782 -2436.9801,2064.3235 -2436.2594,2062.9603 C -2435.7192,2061.9385 -2435.6689,2061.9042 -2434.9126,2062.0422 C -2434.4806,2062.1211 -2434.0948,2062.2173 -2434.0553,2062.2561 C -2433.8178,2062.4893 -2435.1128,2064.751 -2435.8406,2065.374 C -2437.2764,2066.603 -2439.5943,2066.9867 -2441.4929,2066.3096 z M -2133.1759,2066.3232 C -2134.6051,2065.8559 -2135.8308,2064.7599 -2136.5406,2063.3146 C -2137.0957,2062.184 -2137.1697,2061.7826 -2137.1697,2059.901 C -2137.1697,2058.0175 -2137.096,2057.6186 -2136.5382,2056.4826 C -2135.1875,2053.7321 -2132.3851,2052.5766 -2129.2983,2053.4975 C -2126.9198,2054.2071 -2125.4547,2056.2865 -2125.2288,2059.2731 C -2124.9156,2063.4136 -2127.1521,2066.3236 -2130.8185,2066.5461 C -2131.6477,2066.5964 -2132.6218,2066.5043 -2133.1759,2066.3232 z M -2128.8121,2064.2495 C -2127.7264,2063.384 -2127.1679,2062.2423 -2127.0172,2060.5804 C -2126.7862,2058.0324 -2127.7345,2055.9752 -2129.5121,2055.1679 C -2131.8325,2054.1142 -2134.4289,2055.2996 -2135.1549,2057.7442 C -2136.3508,2061.7712 -2134.3504,2065.2207 -2130.9445,2065.0048 C -2129.925,2064.9401 -2129.4815,2064.7831 -2128.8121,2064.2495 z M -2465.2144,2059.901 L -2465.2144,2053.3918 L -2464.3166,2053.3918 L -2463.4187,2053.3918 L -2463.4187,2056.0853 L -2463.4187,2058.7787 L -2460.0519,2058.7787 L -2456.685,2058.7787 L -2456.685,2056.0853 L -2456.685,2053.3918 L -2455.7872,2053.3918 L -2454.8894,2053.3918 L -2454.8894,2059.901 L -2454.8894,2066.4103 L -2455.7872,2066.4103 L -2456.685,2066.4103 L -2456.685,2063.3801 L -2456.685,2060.3499 L -2460.0519,2060.3499 L -2463.4187,2060.3499 L -2463.4187,2063.3801 L -2463.4187,2066.4103 L -2464.3166,2066.4103 L -2465.2144,2066.4103 L -2465.2144,2059.901 z M -2010.6221,2064.0786 C -2012.0513,2063.6114 -2013.277,2062.5154 -2013.9867,2061.07 C -2014.5419,2059.9395 -2014.6159,2059.5381 -2014.6159,2057.6565 C -2014.6159,2055.7729 -2014.5422,2055.374 -2013.9844,2054.2381 C -2012.6337,2051.4875 -2009.8313,2050.332 -2006.7445,2051.253 C -2004.366,2051.9626 -2002.9009,2054.0419 -2002.675,2057.0285 C -2002.3618,2061.169 -2004.5983,2064.079 -2008.2647,2064.3015 C -2009.0939,2064.3518 -2010.068,2064.2597 -2010.6221,2064.0786 z M -2006.2583,2062.0049 C -2005.1726,2061.1394 -2004.6141,2059.9978 -2004.4634,2058.3358 C -2004.2323,2055.7878 -2005.1806,2053.7306 -2006.9583,2052.9233 C -2009.2787,2051.8696 -2011.8751,2053.055 -2012.601,2055.4997 C -2013.7969,2059.5266 -2011.7966,2062.9761 -2008.3906,2062.7602 C -2007.3712,2062.6956 -2006.9277,2062.5385 -2006.2583,2062.0049 z M -1997.0669,2064.065 C -1998.4809,2063.5607 -1999.2196,2062.8179 -2000.0915,2061.0233 C -2000.6116,2059.953 -2000.692,2059.5052 -2000.6955,2057.6565 C -2000.6999,2055.2993 -2000.2381,2053.8831 -1999.0602,2052.6417 C -1997.7208,2051.2302 -1995.2334,2050.5906 -1993.2111,2051.1377 C -1992.0387,2051.4548 -1990.6278,2052.7236 -1990.1543,2053.8866 L -1989.8158,2054.7181 L -1990.6563,2054.9504 C -1991.1186,2055.0782 -1991.5224,2055.108 -1991.5538,2055.0167 C -1991.7816,2054.3533 -1992.623,2053.3143 -1993.2343,2052.9416 C -1994.858,2051.9516 -1997.3443,2052.717 -1998.3427,2054.5141 C -1998.831,2055.393 -1998.9039,2055.8009 -1998.9039,2057.6565 C -1998.9039,2059.512 -1998.831,2059.9199 -1998.3427,2060.7989 C -1997.5932,2062.1481 -1996.2063,2062.8876 -1994.6786,2062.7528 C -1993.329,2062.6337 -1992.5541,2062.0789 -1991.8334,2060.7157 C -1991.2932,2059.6939 -1991.243,2059.6596 -1990.4867,2059.7977 C -1990.0546,2059.8765 -1989.6688,2059.9727 -1989.6294,2060.0115 C -1989.3918,2060.2447 -1990.6869,2062.5065 -1991.4147,2063.1294 C -1992.8505,2064.3584 -1995.1684,2064.7421 -1997.0669,2064.065 z M -1987.3443,2057.6565 L -1987.3443,2051.1472 L -1986.4465,2051.1472 L -1985.5486,2051.1472 L -1985.5486,2053.8407 L -1985.5486,2056.5342 L -1982.1818,2056.5342 L -1978.8149,2056.5342 L -1978.8149,2053.8407 L -1978.8149,2051.1472 L -1977.9171,2051.1472 L -1977.0193,2051.1472 L -1977.0193,2057.6565 L -1977.0193,2064.1657 L -1977.9171,2064.1657 L -1978.8149,2064.1657 L -1978.8149,2061.1355 L -1978.8149,2058.1054 L -1982.1818,2058.1054 L -1985.5486,2058.1054 L -1985.5486,2061.1355 L -1985.5486,2064.1657 L -1986.4465,2064.1657 L -1987.3443,2064.1657 L -1987.3443,2057.6565 z M -2095.5328,2058.1932 C -2099.545,2055.0521 -2103.5433,2051.9314 -2104.4179,2051.2582 L -2106.0082,2050.0342 L -2114.743,2053.6024 C -2119.5471,2055.5649 -2123.5422,2057.1031 -2123.6209,2057.0207 C -2123.6996,2056.9383 -2123.8225,2056.6688 -2123.894,2056.4219 C -2124.0116,2056.0158 -2123.0725,2055.5878 -2114.0436,2051.9328 C -2108.5544,2049.7107 -2104.063,2047.8379 -2104.0627,2047.7711 C -2104.0613,2047.4158 -2100.0307,2018.5355 -2099.9754,2018.4843 C -2099.9393,2018.4509 -2094.3165,2016.1445 -2087.4803,2013.359 C -2080.6442,2010.5734 -2075.0294,2008.265 -2075.0032,2008.229 C -2074.9769,2008.193 -2073.5243,2001.4972 -2071.7751,1993.3494 L -2068.5948,1978.5352 L -2078.7251,1968.5468 L -2088.8554,1958.5585 L -2082.1683,1944.8969 C -2078.4905,1937.383 -2075.4829,1931.1207 -2075.4848,1930.9805 C -2075.4877,1930.7742 -2079.1046,1924.1669 -2088.8358,1906.5911 L -2089.2737,1905.8 L -2082.5381,1892.0405 L -2075.8024,1878.2809 L -2082.1029,1865.956 C -2088.0404,1854.341 -2088.4438,1853.6201 -2089.1063,1853.4417 C -2089.4929,1853.3375 -2094.1308,1852.0988 -2099.4128,1850.6889 L -2109.0163,1848.1253 L -2108.8778,1847.5647 C -2108.8017,1847.2563 -2108.7154,1846.9801 -2108.6862,1846.9509 C -2108.657,1846.9217 -2104.1069,1848.1132 -2098.5748,1849.5986 C -2093.0427,1851.0841 -2088.3781,1852.2694 -2088.209,1852.2325 C -2088.0399,1852.1957 -2083.3705,1847.542 -2077.8325,1841.8909 L -2067.7635,1831.6161 L -2067.952,1830.5558 C -2070.8161,1814.4422 -2072.8879,1803.2357 -2073.0249,1803.1157 C -2073.1208,1803.0317 -2077.6688,1801.3599 -2083.1316,1799.4006 C -2088.5943,1797.4413 -2093.0638,1795.7287 -2093.0638,1795.5948 C -2093.0638,1795.4609 -2092.9375,1795.1944 -2092.7832,1795.0024 C -2092.5353,1794.6941 -2091.4755,1795.0258 -2083.6839,1797.85 L -2074.8653,1801.0466 L -2066.6539,1794.1159 C -2062.1377,1790.304 -2058.3696,1787.1851 -2058.2803,1787.1851 C -2058.191,1787.1851 -2057.9583,1787.3619 -2057.763,1787.5779 C -2057.4315,1787.9447 -2057.9346,1788.4151 -2065.3598,1794.6826 C -2069.7333,1798.3741 -2073.3115,1801.4347 -2073.3115,1801.4839 C -2073.3115,1801.5331 -2072.9642,1801.7184 -2072.5397,1801.8958 C -2071.916,1802.1564 -2071.7329,1802.3848 -2071.5857,1803.0856 L -2071.4036,1803.9529 L -2063.8843,1797.5749 C -2055.1094,1790.132 -2055.4657,1790.4051 -2055.0171,1790.7774 C -2054.8326,1790.9306 -2054.6866,1791.1698 -2054.6927,1791.309 C -2054.6988,1791.4482 -2058.3801,1794.6427 -2062.8732,1798.408 C -2067.5898,1802.3606 -2071.0477,1805.4161 -2071.0547,1805.6376 C -2071.0747,1806.2629 -2066.546,1831.2791 -2066.3869,1831.4225 C -2066.3067,1831.4947 -2060.4816,1834.2508 -2053.4421,1837.547 L -2040.6431,1843.5402 L -2027.5387,1836.5861 L -2014.4343,1829.6319 L -2013.7395,1829.9838 C -2013.3574,1830.1774 -2007.6287,1833.2061 -2001.0092,1836.7143 L -1988.9738,1843.0929 L -1975.7578,1836.3308 C -1968.4889,1832.6117 -1962.4701,1829.5008 -1962.3826,1829.4178 C -1962.2951,1829.3348 -1961.0589,1824.9341 -1959.6355,1819.6384 C -1958.2121,1814.3427 -1957.0022,1809.9646 -1956.9468,1809.9093 C -1956.8914,1809.8539 -1956.6051,1809.8949 -1956.3106,1810.0003 L -1955.775,1810.192 L -1958.3115,1819.6192 C -1959.7066,1824.8042 -1960.8504,1829.2143 -1960.8532,1829.4194 C -1960.856,1829.6245 -1956.4561,1834.1226 -1951.0756,1839.4152 L -1941.293,1849.0381 L -1926.6659,1846.7478 L -1912.0388,1844.4574 L -1904.0819,1852.3969 C -1896.1371,1860.3243 -1896.1257,1860.337 -1896.5508,1860.8068 L -1896.9766,1861.2773 L -1904.7322,1853.546 L -1912.4877,1845.8148 L -1926.7327,1848.0394 C -1934.5675,1849.263 -1941.0462,1850.3384 -1941.1299,1850.4292 C -1941.2136,1850.52 -1944.4355,1856.5835 -1948.2897,1863.9035 L -1955.2974,1877.2126 L -1947.865,1890.2209 C -1943.7772,1897.3755 -1940.4327,1903.325 -1940.4327,1903.4419 C -1940.4327,1903.5588 -1943.4123,1909.2652 -1947.0542,1916.1227 C -1950.696,1922.9803 -1953.6757,1928.7253 -1953.6757,1928.8896 C -1953.6757,1929.1242 -1940.3504,1956.3587 -1940.1257,1956.5835 C -1940.0942,1956.6149 -1935.1759,1957.6817 -1929.1961,1958.9542 C -1918.4018,1961.2512 -1918.3241,1961.2717 -1918.3846,1961.8072 C -1918.4181,1962.1038 -1918.4805,1962.3814 -1918.5232,1962.4242 C -1918.5659,1962.4669 -1923.3867,1961.4856 -1929.2362,1960.2435 C -1935.0856,1959.0014 -1940.0395,1958.0132 -1940.2448,1958.0474 C -1940.4502,1958.0815 -1944.9541,1962.529 -1950.2536,1967.9307 L -1959.8891,1977.7518 L -1964.3183,1990.5394 C -1966.7543,1997.5726 -1968.6789,2003.4379 -1968.5951,2003.5735 C -1968.5113,2003.709 -1965.5242,2007.9158 -1961.9571,2012.9218 C -1958.3899,2017.9278 -1955.4713,2022.0877 -1955.4713,2022.1661 C -1955.4713,2022.4453 -1956.4287,2022.9079 -1956.5676,2022.6958 C -1956.6436,2022.5796 -1959.5295,2018.5165 -1962.9806,2013.6666 L -1969.2554,2004.8486 L -1969.5608,2005.7649 C -1969.8483,2006.6274 -1969.9226,2006.6852 -1970.8255,2006.749 L -1971.7848,2006.8168 L -1965.3946,2015.7768 C -1959.4628,2024.0938 -1959.0339,2024.7584 -1959.4172,2025.0387 C -1959.6443,2025.2047 -1959.9217,2025.3101 -1960.0337,2025.2728 C -1960.1456,2025.2355 -1963.1821,2021.0676 -1966.7812,2016.0109 L -1973.3253,2006.8168 L -1988.8889,2006.7046 L -2004.4525,2006.5924 L -2009.5642,1992.4515 L -2014.6758,1978.3107 L -2027.6407,1971.1936 C -2038.9271,1964.9979 -2040.6667,1964.1085 -2041.0782,1964.3235 C -2043.0743,1965.3667 -2066.9563,1978.5136 -2067.1059,1978.6516 C -2067.2111,1978.7487 -2067.6956,1985.2229 -2068.1824,1993.0386 C -2068.6693,2000.8544 -2069.0882,2007.2607 -2069.1133,2007.2749 C -2069.1385,2007.289 -2075.8255,2010.0065 -2083.9733,2013.3137 C -2092.1211,2016.6209 -2098.8067,2019.3426 -2098.8302,2019.3619 C -2098.8537,2019.3813 -2099.6396,2024.95 -2100.5765,2031.737 C -2101.5135,2038.5239 -2102.3366,2044.3934 -2102.4057,2044.7803 C -2102.5299,2045.4765 -2102.4365,2045.5575 -2093.5074,2052.4925 L -2084.4836,2059.501 L -2084.9377,2059.9551 L -2085.3918,2060.4093 L -2093.9499,2053.7581 C -2098.6568,2050.1 -2102.5458,2047.107 -2102.592,2047.107 C -2102.6382,2047.107 -2102.7434,2047.5058 -2102.8257,2047.9932 C -2102.9548,2048.7569 -2103.0851,2048.9157 -2103.7677,2049.141 C -2104.5362,2049.3946 -2104.5474,2049.4145 -2104.1428,2049.8047 C -2103.9133,2050.0259 -2100.029,2053.0737 -2095.511,2056.5775 C -2087.4926,2062.796 -2087.3044,2062.9599 -2087.6263,2063.4447 C -2087.8077,2063.7178 -2088.0195,2063.9329 -2088.097,2063.9227 C -2088.1745,2063.9125 -2091.5207,2061.3342 -2095.5328,2058.1932 z M -1970.3342,2004.0672 C -1970.0914,2003.3574 -1967.961,1997.2 -1965.6,1990.3841 C -1963.239,1983.5683 -1961.3082,1977.9119 -1961.3095,1977.8145 C -1961.3116,1977.6493 -1988.6159,1964.7295 -1988.9607,1964.7305 C -1989.0726,1964.7309 -2012.8166,1977.7485 -2013.3281,1978.0899 C -2013.3851,1978.1281 -2004.1662,2003.8368 -2003.7311,2004.8528 L -2003.5149,2005.3579 L -1987.1452,2005.3579 L -1970.7757,2005.3579 L -1970.3342,2004.0672 z M -2008.8707,1979.8394 C -2009.0152,1979.5222 -2009.1044,1979.244 -2009.069,1979.221 C -2008.3834,1978.7769 -1989.2913,1968.3224 -1989.166,1968.3224 C -1989.0678,1968.3224 -1988.8831,1968.5517 -1988.7554,1968.8319 C -1988.5322,1969.3218 -1988.8452,1969.5193 -1996.8457,1973.9383 C -2001.4231,1976.4666 -2005.9422,1978.9584 -2006.8881,1979.4756 L -2008.608,1980.4161 L -2008.8707,1979.8394 z M -2054.6615,1970.3203 C -2047.4506,1966.3576 -2041.5132,1963.0794 -2041.4671,1963.0353 C -2041.4211,1962.9912 -2042.3513,1958.839 -2043.5342,1953.8082 C -2044.7172,1948.7774 -2045.6637,1944.6399 -2045.6376,1944.6138 C -2045.6115,1944.5877 -2045.3371,1944.5029 -2045.0279,1944.4252 L -2044.4658,1944.2841 L -2042.2857,1953.5355 C -2041.0867,1958.6238 -2040.0268,1962.8587 -2039.9304,1962.9465 C -2039.7347,1963.1247 -2014.2988,1977.0762 -2014.1696,1977.0762 C -2014.0693,1977.0762 -1989.7776,1963.6479 -1989.6537,1963.524 C -1989.6052,1963.4755 -1988.8154,1959.2137 -1987.8986,1954.0535 C -1986.9818,1948.8932 -1986.2043,1944.6109 -1986.1707,1944.5372 C -1986.1372,1944.4635 -1985.8499,1944.4569 -1985.5324,1944.5226 L -1984.955,1944.6421 L -1986.5947,1953.9571 C -1987.4966,1959.0803 -1988.2088,1963.3542 -1988.1775,1963.4546 C -1988.1461,1963.5549 -1981.9217,1966.5559 -1974.3455,1970.1233 L -1960.5705,1976.6096 L -1952.6899,1968.5941 C -1948.3555,1964.1855 -1944.0379,1959.7705 -1943.0952,1958.7829 L -1941.3813,1956.9873 L -1948.1282,1943.2824 L -1954.8751,1929.5775 L -1965.6666,1931.9994 C -1971.6019,1933.3315 -1976.4719,1934.4231 -1976.4887,1934.4253 C -1976.5056,1934.4275 -1976.5613,1934.1439 -1976.6124,1933.7952 L -1976.7055,1933.1611 L -1965.9201,1930.7511 C -1959.9881,1929.4256 -1955.0603,1928.268 -1954.9695,1928.1787 C -1954.8787,1928.0893 -1951.8735,1922.4894 -1948.2913,1915.7345 L -1941.7783,1903.4527 L -1949.0903,1890.6594 C -1954.6189,1880.9866 -1956.5215,1877.8369 -1956.8908,1877.746 C -1957.1594,1877.6798 -1961.7225,1876.7865 -1967.0309,1875.7606 C -1976.5662,1873.918 -1976.6818,1873.8892 -1976.6216,1873.3695 C -1976.5881,1873.0801 -1976.5212,1872.804 -1976.4731,1872.7558 C -1976.4249,1872.7076 -1971.9082,1873.5308 -1966.4359,1874.585 C -1960.9637,1875.6392 -1956.4182,1876.43 -1956.3348,1876.3422 C -1956.0849,1876.0791 -1942.6421,1850.5085 -1942.5317,1850.0863 C -1942.4585,1849.8063 -1945.1445,1847.0271 -1952.0738,1840.2132 C -1957.378,1834.9974 -1961.7846,1830.7299 -1961.8662,1830.7299 C -1961.981,1830.7299 -1987.9077,1843.8923 -1988.1976,1844.0977 C -1988.2349,1844.1241 -1987.4013,1848.7783 -1986.3453,1854.4405 C -1985.2892,1860.1026 -1984.4255,1864.8497 -1984.4258,1864.9896 C -1984.4264,1865.2395 -1985.3288,1865.591 -1985.5085,1865.4113 C -1985.559,1865.3608 -1986.4829,1860.6121 -1987.5617,1854.8586 C -1988.6405,1849.1051 -1989.6137,1844.3128 -1989.7244,1844.2089 C -1990.0469,1843.9061 -2014.1438,1831.1247 -2014.3914,1831.125 C -2014.6097,1831.1253 -2039.5904,1844.3399 -2039.9204,1844.6296 C -2040.0425,1844.7369 -2044.3565,1864.4808 -2044.3565,1864.9325 C -2044.3565,1864.9749 -2044.609,1864.9614 -2044.9177,1864.9024 C -2045.241,1864.8406 -2045.4804,1864.6397 -2045.4826,1864.4285 C -2045.4847,1864.2268 -2044.5587,1859.6935 -2043.4248,1854.3543 C -2042.2909,1849.0152 -2041.4054,1844.6142 -2041.457,1844.5744 C -2041.5086,1844.5346 -2047.2561,1841.8279 -2054.2292,1838.5596 L -2066.9076,1832.6173 L -2074.4304,1840.2618 C -2078.5679,1844.4662 -2083.1273,1849.1171 -2084.5624,1850.5971 L -2087.1716,1853.2879 L -2080.9711,1865.4208 L -2074.7705,1877.5538 L -2064.5754,1875.5785 C -2058.9681,1874.4921 -2054.3553,1873.6282 -2054.3247,1873.6588 C -2054.2942,1873.6894 -2054.2062,1873.9667 -2054.1294,1874.2751 L -2053.9896,1874.8358 L -2064.2678,1876.8166 C -2069.9209,1877.906 -2074.6093,1878.8655 -2074.6866,1878.9489 C -2074.9436,1879.2261 -2087.7516,1905.5825 -2087.7403,1905.8109 C -2087.7273,1906.0726 -2074.5161,1929.9476 -2074.2209,1930.2428 C -2074.1117,1930.352 -2068.9984,1931.5396 -2062.858,1932.8818 C -2056.7176,1934.224 -2051.6778,1935.3486 -2051.6583,1935.3808 C -2051.6389,1935.413 -2051.6799,1935.6992 -2051.7494,1936.0168 L -2051.8758,1936.5943 L -2063.0555,1934.1405 C -2069.2043,1932.791 -2074.2669,1931.7231 -2074.3056,1931.7674 C -2074.3443,1931.8117 -2077.2885,1937.8026 -2080.8483,1945.0805 L -2087.3207,1958.3131 L -2077.5665,1967.9182 C -2072.2017,1973.201 -2067.8033,1977.5237 -2067.7923,1977.5242 C -2067.7813,1977.5247 -2061.8724,1974.2829 -2054.6615,1970.3203 z M -1961.3851,1972.1761 C -1961.7384,1971.7857 -1961.3676,1971.3693 -1953.9778,1963.8563 C -1946.2049,1955.9538 -1946.1982,1955.9478 -1945.7507,1956.3952 C -1945.3033,1956.8427 -1945.3092,1956.8494 -1953.0245,1964.7127 C -1957.2714,1969.041 -1960.8062,1972.5835 -1960.8796,1972.5847 C -1960.9531,1972.586 -1961.1806,1972.4021 -1961.3851,1972.1761 z M -2046.1522,1960.9733 C -2046.1522,1960.8771 -2046.9602,1957.3851 -2047.9478,1953.2134 C -2048.9354,1949.0416 -2049.7435,1945.5831 -2049.7435,1945.528 C -2049.7435,1945.4728 -2049.4609,1945.4277 -2049.1156,1945.4277 L -2048.4877,1945.4277 L -2046.668,1953.1154 C -2045.6672,1957.3436 -2044.8639,1960.8141 -2044.883,1960.8276 C -2045.1045,1960.9843 -2046.1522,1961.1046 -2046.1522,1960.9733 z M -2050.4169,1936.4494 L -2050.4169,1929.9401 L -2049.4629,1929.9458 L -2048.509,1929.9515 L -2045.1988,1934.94 L -2041.8887,1939.9285 L -2041.8881,1934.9343 L -2041.8875,1929.9401 L -2040.9896,1929.9401 L -2040.0918,1929.9401 L -2040.0918,1936.4494 L -2040.0918,1942.9587 L -2041.0458,1942.9529 L -2041.9997,1942.9472 L -2045.3099,1937.9588 L -2048.62,1932.9703 L -2048.6206,1937.9645 L -2048.6212,1942.9587 L -2049.519,1942.9587 L -2050.4169,1942.9587 L -2050.4169,1936.4494 z M -1989.14,1935.776 L -1989.14,1929.2667 L -1988.186,1929.2724 L -1987.2321,1929.2782 L -1983.9219,1934.2666 L -1980.6118,1939.2551 L -1980.6112,1934.2609 L -1980.6106,1929.2667 L -1979.7127,1929.2667 L -1978.8149,1929.2667 L -1978.8149,1935.776 L -1978.8149,1942.2853 L -1979.7689,1942.2796 L -1980.7228,1942.2739 L -1984.0329,1937.2854 L -1987.3431,1932.2969 L -1987.3437,1937.2911 L -1987.3443,1942.2853 L -1988.2421,1942.2853 L -1989.14,1942.2853 L -1989.14,1935.776 z M -2036.1264,1928.8926 C -2036.4818,1928.5372 -2036.2149,1927.917 -2035.3832,1927.1656 C -2033.9009,1925.8265 -2033.0602,1926.6672 -2034.3994,1928.1495 C -2035.1508,1928.9812 -2035.771,1929.2481 -2036.1264,1928.8926 z M -2078.3797,1916.6343 C -2083.5085,1907.348 -2084.1896,1906.0015 -2083.8789,1905.762 C -2083.6839,1905.6116 -2083.4218,1905.4853 -2083.2965,1905.4814 C -2083.1712,1905.4775 -2080.4246,1910.2468 -2077.1929,1916.0799 C -2071.9615,1925.5223 -2071.3573,1926.7163 -2071.6839,1926.9661 C -2071.8856,1927.1204 -2072.1576,1927.2436 -2072.2883,1927.2399 C -2072.419,1927.2362 -2075.1601,1922.4636 -2078.3797,1916.6343 z M -1996.9518,1919.7715 L -2003.0771,1913.6431 L -2002.6074,1913.218 C -2002.1388,1912.7939 -2002.1233,1912.8074 -1995.9832,1918.9444 C -1990.1898,1924.7349 -1989.85,1925.1195 -1990.1925,1925.4979 C -1990.3926,1925.719 -1990.6171,1925.8999 -1990.6914,1925.8999 C -1990.7657,1925.8999 -1993.5828,1923.1421 -1996.9518,1919.7715 z M -1957.5497,1924.9459 C -1957.8788,1924.6954 -1957.321,1923.5401 -1952.333,1914.1422 C -1949.2611,1908.3544 -1946.6651,1903.5383 -1946.5642,1903.4398 C -1946.4634,1903.3412 -1946.1599,1903.38 -1945.8899,1903.526 C -1945.4108,1903.7851 -1945.5346,1904.0484 -1951.0524,1914.5006 C -1954.1618,1920.3905 -1956.8128,1925.2134 -1956.9435,1925.2181 C -1957.0742,1925.2227 -1957.347,1925.1003 -1957.5497,1924.9459 z M -2031.6372,1924.4035 C -2031.9672,1924.0735 -2031.7494,1923.4826 -2031.0467,1922.8015 C -2030.1512,1921.9335 -2029.3179,1921.837 -2029.3179,1922.6012 C -2029.3179,1923.5295 -2031.1149,1924.9258 -2031.6372,1924.4035 z M -2027.2977,1919.5469 C -2027.2977,1918.8869 -2025.9191,1917.5249 -2025.36,1917.6326 C -2024.6641,1917.7666 -2024.7353,1918.4873 -2025.5251,1919.3021 C -2026.4082,1920.2133 -2027.2977,1920.3361 -2027.2977,1919.5469 z M -2022.6803,1915.4466 C -2023.0974,1915.0296 -2022.9328,1914.6353 -2021.9523,1913.7023 C -2020.7013,1912.512 -2019.7457,1913.4675 -2020.9361,1914.7185 C -2021.8691,1915.699 -2022.2633,1915.8636 -2022.6803,1915.4466 z M -2009.2701,1913.1185 C -2010.2388,1912.6787 -2010.9123,1911.746 -2010.9123,1910.8443 C -2010.9123,1910.4265 -2010.8195,1910.3748 -2010.2676,1910.4851 C -2009.9129,1910.5561 -2009.3147,1910.9222 -2008.9381,1911.2988 C -2008.396,1911.8409 -2008.0604,1911.9835 -2007.3271,1911.9835 C -2006.1609,1911.9835 -2005.1209,1911.4562 -2004.8423,1910.7236 C -2004.6247,1910.1513 -2004.5444,1908.8411 -2004.7269,1908.8411 C -2004.7816,1908.8411 -2005.1898,1909.0556 -2005.6341,1909.3177 C -2007.2822,1910.2901 -2009.5242,1909.5221 -2010.5207,1907.6438 C -2011.2649,1906.2411 -2011.2363,1903.4911 -2010.4634,1902.1273 C -2009.6333,1900.6625 -2008.8881,1900.1995 -2007.3607,1900.1995 C -2006.3877,1900.1995 -2005.9141,1900.3225 -2005.357,1900.7198 C -2004.6376,1901.2329 -2004.6275,1901.2337 -2004.6275,1900.7759 C -2004.6275,1900.3934 -2004.4867,1900.3117 -2003.8272,1900.3117 L -2003.027,1900.3117 L -2003.0978,1905.6426 C -2003.1624,1910.5102 -2003.208,1911.0417 -2003.6226,1911.7591 C -2004.5634,1913.3868 -2007.2531,1914.0343 -2009.2701,1913.1185 z M -2005.9455,1907.8161 C -2004.1637,1906.8948 -2004.1965,1902.9145 -2005.9934,1901.9853 C -2006.8048,1901.5657 -2007.401,1901.5723 -2008.2477,1902.0101 C -2009.971,1902.9012 -2010.0443,1906.7108 -2008.3579,1907.7391 C -2007.5058,1908.2587 -2006.8422,1908.2799 -2005.9455,1907.8161 z M -2025.5021,1903.2194 L -2025.5021,1896.6999 L -2024.0139,1896.7663 L -2022.5257,1896.8326 L -2020.9301,1902.25 L -2019.3345,1907.6675 L -2018.1475,1903.709 C -2017.4946,1901.5319 -2016.7569,1899.0688 -2016.5081,1898.2355 L -2016.0559,1896.7204 L -2014.6064,1896.7204 L -2013.1569,1896.7204 L -2013.1569,1903.2297 L -2013.1569,1909.7389 L -2014.0508,1909.7389 L -2014.9447,1909.7389 L -2015.0048,1904.1956 L -2015.0648,1898.6522 L -2016.6647,1904.1394 L -2018.2645,1909.6267 L -2019.3467,1909.6267 L -2020.4289,1909.6267 L -2022.0115,1904.1429 L -2023.5942,1898.659 L -2023.6542,1904.199 L -2023.7143,1909.7389 L -2024.6082,1909.7389 L -2025.5021,1909.7389 L -2025.5021,1903.2194 z M -2000.8118,1897.9549 L -2000.8118,1893.1291 L -2000.1384,1893.1291 L -1999.465,1893.1291 L -1999.465,1897.9549 L -1999.465,1902.7808 L -2000.1384,1902.7808 L -2000.8118,1902.7808 L -2000.8118,1897.9549 z M -1996.996,1897.9549 L -1996.996,1893.1291 L -1996.3226,1893.1291 L -1995.6492,1893.1291 L -1995.6492,1897.9549 L -1995.6492,1902.7808 L -1996.3226,1902.7808 L -1996.996,1902.7808 L -1996.996,1897.9549 z M -2033.5826,1886.9565 C -2039.7474,1880.7886 -2039.7474,1880.7886 -2039.2985,1880.3397 C -2038.8495,1879.8908 -2038.8495,1879.8908 -2032.6847,1886.0587 C -2026.5199,1892.2265 -2026.5199,1892.2265 -2026.9688,1892.6755 C -2027.4177,1893.1244 -2027.4177,1893.1244 -2033.5826,1886.9565 z M -2001.2723,1891.2072 C -2001.5208,1890.9078 -2001.4118,1890.7049 -2000.5282,1889.8213 C -1999.6446,1888.9377 -1999.4417,1888.8287 -1999.1423,1889.0772 C -1998.6164,1889.5137 -1998.7073,1889.8132 -1999.6428,1890.7267 C -2000.5857,1891.6474 -2000.8438,1891.7235 -2001.2723,1891.2072 z M -1996.9209,1886.7162 C -1997.09,1886.2756 -1995.5082,1884.5997 -1994.9233,1884.5997 C -1994.1354,1884.5997 -1994.2119,1885.2737 -1995.1035,1886.1867 C -1996.0062,1887.1111 -1996.6926,1887.3111 -1996.9209,1886.7162 z M -1992.4317,1882.227 C -1992.5959,1881.7993 -1991.0268,1880.1105 -1990.4652,1880.1105 C -1989.7379,1880.1105 -1989.8076,1880.7763 -1990.6302,1881.6868 C -1991.4685,1882.6147 -1992.1989,1882.8337 -1992.4317,1882.227 z M -1988.691,1873.6013 L -1988.691,1867.092 L -1987.7371,1867.0977 L -1986.7832,1867.1034 L -1983.473,1872.0919 L -1980.1629,1877.0804 L -1980.1623,1872.0862 L -1980.1617,1867.092 L -1979.2638,1867.092 L -1978.366,1867.092 L -1978.366,1873.6013 L -1978.366,1880.1105 L -1979.3199,1880.1048 L -1980.2739,1880.0991 L -1983.584,1875.1106 L -1986.8941,1870.1222 L -1986.8948,1875.1164 L -1986.8954,1880.1105 L -1987.7932,1880.1105 L -1988.691,1880.1105 L -1988.691,1873.6013 z M -2051.9881,1873.1524 L -2051.9881,1866.6431 L -2051.0341,1866.6488 L -2050.0802,1866.6545 L -2046.77,1871.643 L -2043.4599,1876.6315 L -2043.4593,1871.6373 L -2043.4587,1866.6431 L -2042.5609,1866.6431 L -2041.663,1866.6431 L -2041.663,1873.1524 L -2041.663,1879.6616 L -2042.617,1879.6559 L -2043.5709,1879.6502 L -2046.8811,1874.6617 L -2050.1912,1869.6733 L -2050.1918,1874.6674 L -2050.1924,1879.6616 L -2051.0902,1879.6616 L -2051.9881,1879.6616 L -2051.9881,1873.1524 z M -2078.3975,1863.8922 L -2083.3712,1854.1857 L -2082.7848,1853.874 C -2082.4622,1853.7026 -2082.166,1853.6521 -2082.1264,1853.7618 C -2082.0868,1853.8715 -2079.851,1858.254 -2077.1579,1863.5007 C -2072.8939,1871.8081 -2072.3058,1873.0764 -2072.6049,1873.3207 C -2072.7938,1873.475 -2073.0554,1873.6007 -2073.1861,1873.6 C -2073.3168,1873.5993 -2075.6619,1869.2308 -2078.3975,1863.8922 z M -1967.4798,1871.4587 C -1972.0475,1870.5526 -1975.81,1869.8054 -1975.8408,1869.7983 C -1976.0533,1869.7497 -1975.8393,1868.662 -1975.6164,1868.6573 C -1975.4621,1868.6541 -1971.5182,1869.3828 -1966.8523,1870.2768 L -1958.3688,1871.9023 L -1958.4352,1872.4693 C -1958.4717,1872.7811 -1958.653,1873.052 -1958.8382,1873.0713 C -1959.0234,1873.0905 -1962.9121,1872.3649 -1967.4798,1871.4587 z M -1955.1346,1843.1871 C -1962.9857,1835.4704 -1962.9904,1835.4653 -1962.5417,1835.0184 C -1962.0931,1834.5716 -1962.0872,1834.5768 -1954.1531,1842.3584 C -1946.4199,1849.9429 -1946.2247,1850.1557 -1946.6514,1850.5383 C -1946.8924,1850.7543 -1947.1321,1850.926 -1947.1841,1850.9198 C -1947.2361,1850.9136 -1950.8138,1847.4339 -1955.1346,1843.1871 z M -2056.0283,1842.5803 C -2061.5219,1839.9971 -2066.0855,1837.8144 -2066.1695,1837.7297 C -2066.2536,1837.6451 -2066.2019,1837.353 -2066.0546,1837.0805 C -2065.7909,1836.5928 -2065.6319,1836.6578 -2055.6328,1841.3436 C -2050.0481,1843.9607 -2045.4788,1846.2096 -2045.4788,1846.3413 C -2045.4788,1846.4729 -2045.6051,1846.7373 -2045.7594,1846.9287 C -2046.0055,1847.2342 -2047.2664,1846.7002 -2056.0283,1842.5803 z M -2004.0931,1841.4248 C -2014.3443,1835.9575 -2014.662,1835.7684 -2014.4342,1835.2684 C -2014.3049,1834.9847 -2014.0719,1834.7818 -2013.9163,1834.8175 C -2013.7607,1834.8532 -2008.8902,1837.3999 -2003.0928,1840.4769 C -1992.8297,1845.9242 -1992.5585,1846.0853 -1992.79,1846.5934 C -1992.9208,1846.8804 -1993.1378,1847.1041 -1993.2723,1847.0903 C -1993.4068,1847.0766 -1998.2762,1844.5271 -2004.0931,1841.4248 z M -2193.2841,2048.857 C -2199.0863,2045.5136 -2203.8668,2042.751 -2203.9073,2042.7178 C -2203.9478,2042.6846 -2203.8468,2042.4039 -2203.6828,2042.094 L -2203.3847,2041.5306 L -2192.9474,2047.568 C -2187.2069,2050.8886 -2182.4204,2053.6378 -2182.3107,2053.6773 C -2182.2009,2053.7168 -2182.2514,2054.0162 -2182.4229,2054.3425 L -2182.7346,2054.9357 L -2193.2841,2048.857 z M -2016.3713,2041.8531 L -2020.3549,2033.2858 L -2031.5769,2031.9566 C -2037.749,2031.2255 -2042.893,2030.5692 -2043.0081,2030.4981 C -2043.2986,2030.3186 -2043.0205,2029.3748 -2042.6771,2029.3748 C -2042.5229,2029.3748 -2037.7875,2029.9303 -2032.154,2030.6093 C -2026.5205,2031.2883 -2021.7065,2031.8438 -2021.4563,2031.8438 C -2021.03,2031.8438 -2021.0219,2031.8042 -2021.3274,2031.2135 C -2021.6411,2030.6069 -2021.63,2030.5742 -2021.0331,2030.349 L -2020.4128,2030.1148 L -2015.9432,2039.7383 C -2013.4848,2045.0312 -2011.4443,2049.4929 -2011.4086,2049.6533 C -2011.3729,2049.8137 -2011.5786,2050.0519 -2011.8657,2050.1827 C -2012.3767,2050.4155 -2012.4716,2050.2399 -2016.3713,2041.8531 z M -1955.1811,2037.1437 C -1956.6102,2036.6765 -1957.836,2035.5805 -1958.5457,2034.1351 C -1959.1009,2033.0046 -1959.1749,2032.6032 -1959.1749,2030.7216 C -1959.1749,2028.838 -1959.1012,2028.4391 -1958.5433,2027.3032 C -1957.1927,2024.5526 -1954.3903,2023.3971 -1951.3035,2024.3181 C -1948.925,2025.0277 -1947.4599,2027.107 -1947.234,2030.0936 C -1946.9208,2034.2341 -1949.1573,2037.1441 -1952.8236,2037.3666 C -1953.6529,2037.4169 -1954.627,2037.3248 -1955.1811,2037.1437 z M -1950.8173,2035.07 C -1949.7316,2034.2045 -1949.1731,2033.0629 -1949.0224,2031.4009 C -1948.7913,2028.8529 -1949.7396,2026.7957 -1951.5173,2025.9884 C -1953.8377,2024.9347 -1956.434,2026.1201 -1957.16,2028.5648 C -1958.3559,2032.5917 -1956.3556,2036.0412 -1952.9496,2035.8253 C -1951.9302,2035.7607 -1951.4867,2035.6036 -1950.8173,2035.07 z M -2052.5956,2034.6747 C -2054.0248,2034.2074 -2055.2505,2033.1114 -2055.9603,2031.666 C -2056.5155,2030.5355 -2056.5894,2030.1341 -2056.5894,2028.2525 C -2056.5894,2026.369 -2056.5158,2025.9701 -2055.9579,2024.8341 C -2054.6072,2022.0836 -2051.8049,2020.9281 -2048.7181,2021.849 C -2046.3395,2022.5586 -2044.8744,2024.638 -2044.6486,2027.6246 C -2044.3354,2031.7651 -2046.5719,2034.6751 -2050.2382,2034.8976 C -2051.0675,2034.9479 -2052.0415,2034.8558 -2052.5956,2034.6747 z M -2048.2319,2032.601 C -2047.1461,2031.7355 -2046.5876,2030.5938 -2046.4369,2028.9319 C -2046.2059,2026.3839 -2047.1542,2024.3267 -2048.9318,2023.5194 C -2051.2523,2022.4656 -2053.8486,2023.6511 -2054.5746,2026.0957 C -2055.7705,2030.1227 -2053.7701,2033.5721 -2050.3642,2033.3563 C -2049.3447,2033.2916 -2048.9012,2033.1345 -2048.2319,2032.601 z M -2018.1692,2028.4464 L -2019.4453,2027.5411 L -2019.5881,2028.2551 C -2019.7129,2028.8788 -2019.8049,2028.9551 -2020.3158,2028.8588 C -2020.6375,2028.7982 -2025.8247,2028.1621 -2031.843,2027.4451 C -2042.6365,2026.1593 -2042.7853,2026.1348 -2042.7853,2025.6391 C -2042.7853,2025.3627 -2042.6984,2025.0829 -2042.5922,2025.0173 C -2042.486,2024.9516 -2037.3612,2025.5016 -2031.2039,2026.2395 C -2025.0466,2026.9774 -2019.9077,2027.5474 -2019.7843,2027.5063 C -2019.6608,2027.4651 -2019.9878,2027.1483 -2020.5108,2026.8021 C -2021.0339,2026.456 -2021.4618,2026.1184 -2021.4618,2026.0519 C -2021.4618,2025.9854 -2021.2977,2025.7497 -2021.0972,2025.5281 C -2020.7503,2025.1449 -2020.6244,2025.1989 -2018.5239,2026.6327 C -2017.3092,2027.4619 -2016.3149,2028.2413 -2016.3145,2028.3647 C -2016.314,2028.4882 -2016.444,2028.7608 -2016.6033,2028.9704 C -2016.8686,2029.3195 -2017.0006,2029.2754 -2018.1692,2028.4464 z M -2017.021,2024.7987 C -2018.0944,2024.0441 -2018.9772,2023.3702 -2018.9827,2023.3012 C -2018.9883,2023.2323 -2018.8501,2022.9806 -2018.6757,2022.7421 C -2018.3713,2022.3259 -2018.2811,2022.3616 -2016.4311,2023.6312 C -2015.371,2024.3587 -2014.5069,2025.0648 -2014.5108,2025.2004 C -2014.5147,2025.3359 -2014.642,2025.6097 -2014.7936,2025.8088 C -2015.038,2026.1298 -2015.2903,2026.0154 -2017.021,2024.7987 z M -2392.4369,2025.3353 C -2392.8398,2025.0897 -2393.3411,2024.5285 -2393.551,2024.0883 C -2393.8828,2023.3926 -2393.8897,2023.2608 -2393.6042,2023.0802 C -2393.0466,2022.7275 -2392.7801,2022.8389 -2392.4866,2023.5475 C -2392.1535,2024.3516 -2391.6567,2024.6612 -2390.6991,2024.6612 C -2389.3765,2024.6612 -2388.4905,2023.1502 -2389.1216,2021.9709 C -2389.3898,2021.4697 -2390.6972,2020.9989 -2391.2411,2021.2076 C -2391.5511,2021.3266 -2391.6162,2021.2537 -2391.556,2020.8547 C -2391.5025,2020.5004 -2391.2216,2020.2634 -2390.6047,2020.0524 C -2389.2739,2019.5971 -2388.9579,2018.7662 -2389.7967,2017.9275 C -2390.632,2017.0922 -2392.3455,2017.6056 -2392.7475,2018.8117 C -2392.8135,2019.0097 -2393.0155,2019.0557 -2393.3512,2018.9492 C -2393.9885,2018.7469 -2393.8366,2018.0929 -2392.9371,2017.167 C -2392.0452,2016.2489 -2390.4454,2016.103 -2389.3651,2016.8413 C -2388.1259,2017.6881 -2387.8957,2019.253 -2388.8856,2020.1006 C -2389.2952,2020.4513 -2389.284,2020.4868 -2388.5428,2021.1858 C -2386.1775,2023.4166 -2389.6009,2027.0644 -2392.4369,2025.3353 z M -2289.6354,2025.3353 C -2290.0382,2025.0897 -2290.5395,2024.5285 -2290.7495,2024.0883 C -2291.0812,2023.3926 -2291.0882,2023.2608 -2290.8027,2023.0802 C -2290.245,2022.7275 -2289.9786,2022.8389 -2289.685,2023.5475 C -2289.352,2024.3516 -2288.8551,2024.6612 -2287.8975,2024.6612 C -2286.575,2024.6612 -2285.6889,2023.1502 -2286.32,2021.9709 C -2286.5882,2021.4697 -2287.8957,2020.9989 -2288.4396,2021.2076 C -2288.7496,2021.3266 -2288.8146,2021.2537 -2288.7544,2020.8547 C -2288.7009,2020.5004 -2288.4201,2020.2634 -2287.8031,2020.0524 C -2286.4723,2019.5971 -2286.1564,2018.7662 -2286.9951,2017.9275 C -2287.8304,2017.0922 -2289.5439,2017.6056 -2289.9459,2018.8117 C -2290.0119,2019.0097 -2290.214,2019.0557 -2290.5496,2018.9492 C -2291.187,2018.7469 -2291.035,2018.0929 -2290.1356,2017.167 C -2289.2436,2016.2489 -2287.6438,2016.103 -2286.5635,2016.8413 C -2285.3243,2017.6881 -2285.0941,2019.253 -2286.0841,2020.1006 C -2286.4937,2020.4513 -2286.4824,2020.4868 -2285.7413,2021.1858 C -2283.3759,2023.4166 -2286.7993,2027.0644 -2289.6354,2025.3353 z M -2186.8338,2025.3353 C -2187.2366,2025.0897 -2187.738,2024.5285 -2187.9479,2024.0883 C -2188.2797,2023.3926 -2188.2866,2023.2608 -2188.0011,2023.0802 C -2187.4435,2022.7275 -2187.177,2022.8389 -2186.8835,2023.5475 C -2186.5504,2024.3516 -2186.0536,2024.6612 -2185.096,2024.6612 C -2183.7734,2024.6612 -2182.8874,2023.1502 -2183.5185,2021.9709 C -2183.7867,2021.4697 -2185.0941,2020.9989 -2185.638,2021.2076 C -2185.948,2021.3266 -2186.0131,2021.2537 -2185.9529,2020.8547 C -2185.8994,2020.5004 -2185.6185,2020.2634 -2185.0016,2020.0524 C -2183.6708,2019.5971 -2183.3548,2018.7662 -2184.1936,2017.9275 C -2185.0289,2017.0922 -2186.7424,2017.6056 -2187.1444,2018.8117 C -2187.2104,2019.0097 -2187.4124,2019.0557 -2187.7481,2018.9492 C -2188.3854,2018.7469 -2188.2335,2018.0929 -2187.334,2017.167 C -2186.4421,2016.2489 -2184.8423,2016.103 -2183.762,2016.8413 C -2182.5228,2017.6881 -2182.2926,2019.253 -2183.2825,2020.1006 C -2183.6921,2020.4513 -2183.6809,2020.4868 -2182.9397,2021.1858 C -2180.5744,2023.4166 -2183.9978,2027.0644 -2186.8338,2025.3353 z M -2014.167,2022.3318 C -2014.5373,2022.0499 -2015.2608,2021.5203 -2015.7746,2021.1549 C -2016.6838,2020.5083 -2016.6988,2020.4772 -2016.3331,2019.9923 L -2015.9573,2019.4941 L -2014.2529,2020.6804 C -2012.6072,2021.8259 -2012.5599,2021.884 -2012.8801,2022.3662 C -2013.284,2022.9744 -2013.3243,2022.9733 -2014.167,2022.3318 z M -2415.6803,2021.867 C -2417.0942,2021.3627 -2417.8329,2020.6198 -2418.7048,2018.8253 C -2419.2249,2017.755 -2419.3053,2017.3072 -2419.3088,2015.4584 C -2419.3133,2013.1013 -2418.8514,2011.6851 -2417.6735,2010.4437 C -2416.3341,2009.0322 -2413.8467,2008.3926 -2411.8244,2008.9397 C -2410.652,2009.2568 -2409.2411,2010.5256 -2408.7677,2011.6886 L -2408.4292,2012.5201 L -2409.2696,2012.7524 C -2409.7319,2012.8802 -2410.1357,2012.91 -2410.1671,2012.8187 C -2410.3949,2012.1553 -2411.2363,2011.1163 -2411.8476,2010.7436 C -2413.4713,2009.7536 -2415.9576,2010.519 -2416.956,2012.316 C -2417.4443,2013.195 -2417.5172,2013.6029 -2417.5172,2015.4584 C -2417.5172,2017.314 -2417.4443,2017.7219 -2416.956,2018.6008 C -2416.2065,2019.95 -2414.8196,2020.6896 -2413.2919,2020.5547 C -2411.9423,2020.4357 -2411.1675,2019.8809 -2410.4468,2018.5177 C -2409.9066,2017.4959 -2409.8563,2017.4616 -2409.1,2017.5997 C -2408.6679,2017.6785 -2408.2821,2017.7747 -2408.2427,2017.8135 C -2408.0051,2018.0467 -2409.3002,2020.3085 -2410.028,2020.9314 C -2411.4638,2022.1604 -2413.7817,2022.5441 -2415.6803,2021.867 z M -2312.8787,2021.867 C -2314.2926,2021.3627 -2315.0313,2020.6198 -2315.9033,2018.8253 C -2316.4234,2017.755 -2316.5037,2017.3072 -2316.5072,2015.4584 C -2316.5117,2013.1013 -2316.0499,2011.6851 -2314.8719,2010.4437 C -2313.5326,2009.0322 -2311.0452,2008.3926 -2309.0228,2008.9397 C -2307.8505,2009.2568 -2306.4396,2010.5256 -2305.9661,2011.6886 L -2305.6276,2012.5201 L -2306.4681,2012.7524 C -2306.9303,2012.8802 -2307.3342,2012.91 -2307.3655,2012.8187 C -2307.5934,2012.1553 -2308.4347,2011.1163 -2309.046,2010.7436 C -2310.6697,2009.7536 -2313.1561,2010.519 -2314.1545,2012.316 C -2314.6428,2013.195 -2314.7156,2013.6029 -2314.7156,2015.4584 C -2314.7156,2017.314 -2314.6428,2017.7219 -2314.1545,2018.6008 C -2313.4049,2019.95 -2312.0181,2020.6896 -2310.4903,2020.5547 C -2309.1407,2020.4357 -2308.3659,2019.8809 -2307.6452,2018.5177 C -2307.105,2017.4959 -2307.0548,2017.4616 -2306.2985,2017.5997 C -2305.8664,2017.6785 -2305.4806,2017.7747 -2305.4411,2017.8135 C -2305.2036,2018.0467 -2306.4987,2020.3085 -2307.2264,2020.9314 C -2308.6623,2022.1604 -2310.9802,2022.5441 -2312.8787,2021.867 z M -2210.0772,2021.867 C -2211.4911,2021.3627 -2212.2298,2020.6198 -2213.1017,2018.8253 C -2213.6218,2017.755 -2213.7022,2017.3072 -2213.7057,2015.4584 C -2213.7102,2013.1013 -2213.2483,2011.6851 -2212.0704,2010.4437 C -2210.731,2009.0322 -2208.2436,2008.3926 -2206.2213,2008.9397 C -2205.0489,2009.2568 -2203.638,2010.5256 -2203.1646,2011.6886 L -2202.8261,2012.5201 L -2203.6665,2012.7524 C -2204.1288,2012.8802 -2204.5326,2012.91 -2204.564,2012.8187 C -2204.7918,2012.1553 -2205.6332,2011.1163 -2206.2445,2010.7436 C -2207.8682,2009.7536 -2210.3545,2010.519 -2211.3529,2012.316 C -2211.8412,2013.195 -2211.9141,2013.6029 -2211.9141,2015.4584 C -2211.9141,2017.314 -2211.8412,2017.7219 -2211.3529,2018.6008 C -2210.6034,2019.95 -2209.2165,2020.6896 -2207.6888,2020.5547 C -2206.3392,2020.4357 -2205.5643,2019.8809 -2204.8437,2018.5177 C -2204.3035,2017.4959 -2204.2532,2017.4616 -2203.4969,2017.5997 C -2203.0648,2017.6785 -2202.679,2017.7747 -2202.6396,2017.8135 C -2202.402,2018.0467 -2203.6971,2020.3085 -2204.4249,2020.9314 C -2205.8607,2022.1604 -2208.1786,2022.5441 -2210.0772,2021.867 z M -2406.1821,2015.4584 L -2406.1821,2008.9492 L -2405.2842,2008.9492 L -2404.3864,2008.9492 L -2404.3864,2011.6427 L -2404.3864,2014.3362 L -2401.0195,2014.3362 L -2397.6527,2014.3362 L -2397.6527,2011.6427 L -2397.6527,2008.9492 L -2396.7549,2008.9492 L -2395.857,2008.9492 L -2395.857,2015.4584 L -2395.857,2021.9677 L -2396.7549,2021.9677 L -2397.6527,2021.9677 L -2397.6527,2018.9375 L -2397.6527,2015.9074 L -2401.0195,2015.9074 L -2404.3864,2015.9074 L -2404.3864,2018.9375 L -2404.3864,2021.9677 L -2405.2842,2021.9677 L -2406.1821,2021.9677 L -2406.1821,2015.4584 z M -2303.3805,2015.4584 L -2303.3805,2008.9492 L -2302.4827,2008.9492 L -2301.5849,2008.9492 L -2301.5849,2011.6427 L -2301.5849,2014.3362 L -2298.218,2014.3362 L -2294.8511,2014.3362 L -2294.8511,2011.6427 L -2294.8511,2008.9492 L -2293.9533,2008.9492 L -2293.0555,2008.9492 L -2293.0555,2015.4584 L -2293.0555,2021.9677 L -2293.9533,2021.9677 L -2294.8511,2021.9677 L -2294.8511,2018.9375 L -2294.8511,2015.9074 L -2298.218,2015.9074 L -2301.5849,2015.9074 L -2301.5849,2018.9375 L -2301.5849,2021.9677 L -2302.4827,2021.9677 L -2303.3805,2021.9677 L -2303.3805,2015.4584 z M -2200.3545,2015.4584 L -2200.3545,2008.9492 L -2199.4567,2008.9492 L -2198.5588,2008.9492 L -2198.5588,2011.6427 L -2198.5588,2014.3362 L -2195.192,2014.3362 L -2191.8251,2014.3362 L -2191.8251,2011.6427 L -2191.8251,2008.9492 L -2190.9273,2008.9492 L -2190.0295,2008.9492 L -2190.0295,2015.4584 L -2190.0295,2021.9677 L -2190.9273,2021.9677 L -2191.8251,2021.9677 L -2191.8251,2018.9375 L -2191.8251,2015.9074 L -2195.192,2015.9074 L -2198.5588,2015.9074 L -2198.5588,2018.9375 L -2198.5588,2021.9677 L -2199.4567,2021.9677 L -2200.3545,2021.9677 L -2200.3545,2015.4584 z M -2012.9149,2018.6906 L -2014.334,2017.658 L -2013.8824,2017.2064 L -2013.4308,2016.7549 L -2012.0756,2017.7106 C -2010.7515,2018.6443 -2010.7284,2018.6784 -2011.0667,2019.1947 C -2011.2571,2019.4853 -2011.4316,2019.7231 -2011.4544,2019.7231 C -2011.4772,2019.7231 -2012.1345,2019.2585 -2012.9149,2018.6906 z M -2010.8426,2015.6891 L -2012.0074,2014.8576 L -2011.535,2014.3852 L -2011.0625,2013.9127 L -2010.0896,2014.6114 C -2009.0595,2015.3511 -2008.9454,2015.6082 -2009.3973,2016.1711 C -2009.645,2016.4797 -2009.8141,2016.4233 -2010.8426,2015.6891 z M -2008.7528,2012.6277 L -2009.6154,2012.0416 L -2009.154,2011.5802 L -2008.6926,2011.1188 L -2007.9192,2011.6488 C -2007.2373,2012.116 -2007.1738,2012.2399 -2007.3817,2012.6963 C -2007.6761,2013.3424 -2007.703,2013.3411 -2008.7528,2012.6277 z M -2006.5939,2009.6709 C -2007.0668,2009.3069 -2007.0775,2009.2463 -2006.7511,2008.7802 C -2006.4225,2008.3112 -2006.3674,2008.302 -2005.8636,2008.6321 C -2005.3986,2008.9368 -2005.3597,2009.0571 -2005.5742,2009.5278 C -2005.8674,2010.1714 -2005.932,2010.1804 -2006.5939,2009.6709 z M -2129.3727,1973.71 C -2129.7755,1973.4644 -2130.2768,1972.9033 -2130.4868,1972.4631 C -2130.8185,1971.7674 -2130.8255,1971.6355 -2130.54,1971.4549 C -2129.9823,1971.1022 -2129.7159,1971.2136 -2129.4224,1971.9223 C -2129.0893,1972.7264 -2128.5924,1973.036 -2127.6348,1973.036 C -2126.3123,1973.036 -2125.4262,1971.5249 -2126.0573,1970.3457 C -2126.3256,1969.8445 -2127.633,1969.3736 -2128.1769,1969.5823 C -2128.4869,1969.7013 -2128.5519,1969.6284 -2128.4917,1969.2295 C -2128.4383,1968.8751 -2128.1574,1968.6382 -2127.5405,1968.4272 C -2126.2096,1967.9718 -2125.8937,1967.141 -2126.7324,1966.3022 C -2127.5677,1965.4669 -2129.2812,1965.9804 -2129.6833,1967.1865 C -2129.7492,1967.3845 -2129.9513,1967.4305 -2130.2869,1967.324 C -2130.9243,1967.1217 -2130.7723,1966.4676 -2129.8729,1965.5418 C -2128.9809,1964.6237 -2127.3812,1964.4778 -2126.3008,1965.2161 C -2125.0616,1966.0629 -2124.8315,1967.6278 -2125.8214,1968.4754 C -2126.231,1968.826 -2126.2198,1968.8615 -2125.4786,1969.5606 C -2123.1133,1971.7913 -2126.5366,1975.4392 -2129.3727,1973.71 z M -1889.8765,1972.1388 C -1890.2793,1971.8932 -1890.7806,1971.3321 -1890.9906,1970.8919 C -1891.3224,1970.1962 -1891.3293,1970.0643 -1891.0438,1969.8837 C -1890.4862,1969.531 -1890.2197,1969.6424 -1889.9262,1970.351 C -1889.5931,1971.1552 -1889.0962,1971.4648 -1888.1386,1971.4648 C -1886.8161,1971.4648 -1885.9301,1969.9537 -1886.5611,1968.7745 C -1886.8294,1968.2733 -1888.1368,1967.8024 -1888.6807,1968.0111 C -1888.9907,1968.1301 -1889.0557,1968.0572 -1888.9955,1967.6583 C -1888.9421,1967.3039 -1888.6612,1967.067 -1888.0443,1966.856 C -1886.7135,1966.4006 -1886.3975,1965.5698 -1887.2362,1964.731 C -1888.0715,1963.8957 -1889.785,1964.4092 -1890.1871,1965.6153 C -1890.2531,1965.8133 -1890.4551,1965.8593 -1890.7907,1965.7528 C -1891.4281,1965.5505 -1891.2762,1964.8964 -1890.3767,1963.9706 C -1889.4847,1963.0525 -1887.885,1962.9066 -1886.8046,1963.6449 C -1885.5654,1964.4917 -1885.3353,1966.0565 -1886.3252,1966.9042 C -1886.7348,1967.2548 -1886.7236,1967.2903 -1885.9824,1967.9894 C -1883.6171,1970.2201 -1887.0404,1973.868 -1889.8765,1972.1388 z M -2119.3963,1970.2417 C -2120.8102,1969.7375 -2121.5489,1968.9946 -2122.4209,1967.2001 C -2122.941,1966.1298 -2123.0213,1965.6819 -2123.0248,1963.8332 C -2123.0293,1961.476 -2122.5675,1960.0599 -2121.3895,1958.8185 C -2120.0502,1957.407 -2117.5628,1956.7674 -2115.5404,1957.3144 C -2114.3681,1957.6315 -2112.9572,1958.9004 -2112.4837,1960.0633 L -2112.1452,1960.8949 L -2112.9857,1961.1272 C -2113.4479,1961.2549 -2113.8518,1961.2848 -2113.8831,1961.1935 C -2114.111,1960.53 -2114.9523,1959.4911 -2115.5636,1959.1184 C -2117.1873,1958.1284 -2119.6737,1958.8937 -2120.6721,1960.6908 C -2121.1604,1961.5697 -2121.2332,1961.9777 -2121.2332,1963.8332 C -2121.2332,1965.6887 -2121.1604,1966.0967 -2120.6721,1966.9756 C -2119.9225,1968.3248 -2118.5357,1969.0643 -2117.0079,1968.9295 C -2115.6583,1968.8104 -2114.8835,1968.2557 -2114.1628,1966.8924 C -2113.6226,1965.8706 -2113.5723,1965.8364 -2112.8161,1965.9744 C -2112.384,1966.0533 -2111.9982,1966.1495 -2111.9587,1966.1882 C -2111.7212,1966.4214 -2113.0163,1968.6832 -2113.744,1969.3061 C -2115.1799,1970.5352 -2117.4978,1970.9188 -2119.3963,1970.2417 z M -2143.1178,1963.8332 L -2143.1178,1957.3239 L -2142.22,1957.3239 L -2141.3222,1957.3239 L -2141.3222,1960.0174 L -2141.3222,1962.7109 L -2137.9553,1962.7109 L -2134.5884,1962.7109 L -2134.5884,1960.0174 L -2134.5884,1957.3239 L -2133.6906,1957.3239 L -2132.7928,1957.3239 L -2132.7928,1963.8332 L -2132.7928,1970.3425 L -2133.6906,1970.3425 L -2134.5884,1970.3425 L -2134.5884,1967.3123 L -2134.5884,1964.2821 L -2137.9553,1964.2821 L -2141.3222,1964.2821 L -2141.3222,1967.3123 L -2141.3222,1970.3425 L -2142.22,1970.3425 L -2143.1178,1970.3425 L -2143.1178,1963.8332 z M -1913.1198,1968.6705 C -1914.5338,1968.1663 -1915.2724,1967.4234 -1916.1444,1965.6289 C -1916.6645,1964.5586 -1916.7448,1964.1107 -1916.7483,1962.262 C -1916.7528,1959.9048 -1916.291,1958.4886 -1915.1131,1957.2473 C -1913.7737,1955.8358 -1911.2863,1955.1962 -1909.2639,1955.7432 C -1908.0916,1956.0603 -1906.6807,1957.3292 -1906.2072,1958.4921 L -1905.8687,1959.3237 L -1906.7092,1959.556 C -1907.1714,1959.6837 -1907.5753,1959.7136 -1907.6067,1959.6223 C -1907.8345,1958.9588 -1908.6759,1957.9199 -1909.2871,1957.5472 C -1910.9109,1956.5572 -1913.3972,1957.3225 -1914.3956,1959.1196 C -1914.8839,1959.9985 -1914.9567,1960.4065 -1914.9567,1962.262 C -1914.9567,1964.1175 -1914.8839,1964.5255 -1914.3956,1965.4044 C -1913.646,1966.7536 -1912.2592,1967.4931 -1910.7314,1967.3583 C -1909.3818,1967.2392 -1908.607,1966.6845 -1907.8863,1965.3212 C -1907.3461,1964.2994 -1907.2959,1964.2652 -1906.5396,1964.4032 C -1906.1075,1964.4821 -1905.7217,1964.5783 -1905.6822,1964.617 C -1905.4447,1964.8502 -1906.7398,1967.112 -1907.4676,1967.7349 C -1908.9034,1968.964 -1911.2213,1969.3476 -1913.1198,1968.6705 z M -1903.6216,1962.262 L -1903.6216,1955.7527 L -1902.7238,1955.7527 L -1901.826,1955.7527 L -1901.826,1958.4462 L -1901.826,1961.1397 L -1898.4591,1961.1397 L -1895.0923,1961.1397 L -1895.0923,1958.4462 L -1895.0923,1955.7527 L -1894.1944,1955.7527 L -1893.2966,1955.7527 L -1893.2966,1962.262 L -1893.2966,1968.7713 L -1894.1944,1968.7713 L -1895.0923,1968.7713 L -1895.0923,1965.7411 L -1895.0923,1962.7109 L -1898.4591,1962.7109 L -1901.826,1962.7109 L -1901.826,1965.7411 L -1901.826,1968.7713 L -1902.7238,1968.7713 L -1903.6216,1968.7713 L -1903.6216,1962.262 z M -2110.1889,1963.5685 C -2110.5197,1962.065 -2110.7663,1960.8166 -2110.737,1960.7944 C -2110.7077,1960.7721 -2110.4288,1960.693 -2110.1173,1960.6186 C -2109.5611,1960.4857 -2109.5415,1960.5261 -2109.0358,1962.8531 C -2108.7525,1964.1565 -2108.4733,1965.3468 -2108.4152,1965.4981 C -2108.3346,1965.7081 -2109.1576,1966.3022 -2109.5289,1966.3022 C -2109.5611,1966.3022 -2109.8581,1965.0721 -2110.1889,1963.5685 z M -2106.1831,1964.6749 C -2106.2307,1964.5206 -2106.4389,1963.6368 -2106.6456,1962.7109 C -2106.8523,1961.785 -2107.0695,1960.8507 -2107.1282,1960.6347 C -2107.2124,1960.3245 -2107.094,1960.2419 -2106.5648,1960.2419 C -2105.9015,1960.2419 -2105.8898,1960.2638 -2105.4027,1962.4018 C -2104.9945,1964.1937 -2104.9627,1964.5947 -2105.2159,1964.7552 C -2105.6564,1965.0343 -2106.083,1964.9989 -2106.1831,1964.6749 z M -2103.0916,1961.8692 L -2103.5395,1959.9052 L -2102.9947,1959.8322 C -2102.6951,1959.792 -2102.4039,1959.8052 -2102.3477,1959.8615 C -2102.2914,1959.9177 -2102.0603,1960.7405 -2101.8342,1961.6899 L -2101.4229,1963.416 L -2101.9716,1963.6246 C -2102.2733,1963.7393 -2102.548,1963.8332 -2102.5819,1963.8332 C -2102.6159,1963.8332 -2102.8452,1962.9494 -2103.0916,1961.8692 z M -2099.5431,1961.1098 C -2099.8437,1959.6546 -2099.7131,1959.2407 -2098.9973,1959.3791 C -2098.4626,1959.4825 -2097.838,1962.0194 -2098.2785,1962.299 C -2098.9836,1962.7465 -2099.2585,1962.488 -2099.5431,1961.1098 z M -2095.8325,1960.9876 C -2096.256,1959.491 -2096.2374,1959.1801 -2095.7165,1959.0439 C -2095.4345,1958.9702 -2095.1316,1958.9823 -2095.0432,1959.0708 C -2094.7573,1959.3571 -2094.5585,1961.1397 -2094.8124,1961.1397 C -2094.9415,1961.1397 -2095.1979,1961.1975 -2095.382,1961.2682 C -2095.5871,1961.3469 -2095.7616,1961.2382 -2095.8325,1960.9876 z M -2092.3904,1959.8113 C -2092.3904,1959.5745 -2092.4517,1959.221 -2092.5267,1959.0257 C -2092.6329,1958.7489 -2092.5092,1958.6707 -2091.9655,1958.6707 C -2091.582,1958.6707 -2091.2681,1958.7634 -2091.2681,1958.8768 C -2091.2681,1958.9901 -2091.2137,1959.2247 -2091.1472,1959.3979 C -2091.0735,1959.59 -2091.2529,1959.8162 -2091.6067,1959.9775 C -2092.3645,1960.3227 -2092.3904,1960.3172 -2092.3904,1959.8113 z M -1869.8998,1876.5199 C -1870.3026,1876.2743 -1870.8039,1875.7132 -1871.0139,1875.273 C -1871.3456,1874.5772 -1871.3526,1874.4454 -1871.0671,1874.2648 C -1870.5094,1873.9121 -1870.243,1874.0235 -1869.9495,1874.7321 C -1869.6164,1875.5363 -1869.1195,1875.8459 -1868.1619,1875.8459 C -1866.8394,1875.8459 -1865.9533,1874.3348 -1866.5844,1873.1556 C -1866.8526,1872.6544 -1868.1601,1872.1835 -1868.704,1872.3922 C -1869.014,1872.5112 -1869.079,1872.4383 -1869.0188,1872.0394 C -1868.9653,1871.685 -1868.6845,1871.4481 -1868.0676,1871.237 C -1866.7367,1870.7817 -1866.4208,1869.9509 -1867.2595,1869.1121 C -1868.0948,1868.2768 -1869.8083,1868.7903 -1870.2103,1869.9964 C -1870.2763,1870.1944 -1870.4784,1870.2404 -1870.814,1870.1339 C -1871.4514,1869.9316 -1871.2994,1869.2775 -1870.4,1868.3517 C -1869.508,1867.4336 -1867.9082,1867.2877 -1866.8279,1868.026 C -1865.5887,1868.8728 -1865.3585,1870.4376 -1866.3485,1871.2853 C -1866.7581,1871.6359 -1866.7469,1871.6714 -1866.0057,1872.3705 C -1863.6403,1874.6012 -1867.0637,1878.2491 -1869.8998,1876.5199 z M -1893.1431,1873.0516 C -1894.557,1872.5474 -1895.2957,1871.8045 -1896.1677,1870.01 C -1896.6878,1868.9397 -1896.7681,1868.4918 -1896.7716,1866.6431 C -1896.7761,1864.2859 -1896.3143,1862.8697 -1895.1363,1861.6284 C -1893.797,1860.2169 -1891.3096,1859.5773 -1889.2872,1860.1243 C -1888.1149,1860.4414 -1886.704,1861.7103 -1886.2305,1862.8732 L -1885.892,1863.7047 L -1886.7325,1863.9371 C -1887.1947,1864.0648 -1887.5986,1864.0947 -1887.6299,1864.0034 C -1887.8578,1863.3399 -1888.6991,1862.301 -1889.3104,1861.9283 C -1890.9341,1860.9383 -1893.4205,1861.7036 -1894.4189,1863.5007 C -1894.9072,1864.3796 -1894.98,1864.7876 -1894.98,1866.6431 C -1894.98,1868.4986 -1894.9072,1868.9066 -1894.4189,1869.7855 C -1893.6693,1871.1347 -1892.2825,1871.8742 -1890.7547,1871.7394 C -1889.4051,1871.6203 -1888.6303,1871.0656 -1887.9096,1869.7023 C -1887.3694,1868.6805 -1887.3192,1868.6463 -1886.5629,1868.7843 C -1886.1308,1868.8632 -1885.745,1868.9594 -1885.7055,1868.9981 C -1885.468,1869.2313 -1886.7631,1871.4931 -1887.4908,1872.116 C -1888.9267,1873.3451 -1891.2446,1873.7287 -1893.1431,1873.0516 z M -1883.4205,1866.6431 L -1883.4205,1860.1338 L -1882.5226,1860.1338 L -1881.6248,1860.1338 L -1881.6248,1862.8273 L -1881.6248,1865.5208 L -1878.2579,1865.5208 L -1874.8911,1865.5208 L -1874.8911,1862.8273 L -1874.8911,1860.1338 L -1873.9932,1860.1338 L -1873.0954,1860.1338 L -1873.0954,1866.6431 L -1873.0954,1873.1524 L -1873.9932,1873.1524 L -1874.8911,1873.1524 L -1874.8911,1870.1222 L -1874.8911,1867.092 L -1878.2579,1867.092 L -1881.6248,1867.092 L -1881.6248,1870.1222 L -1881.6248,1873.1524 L -1882.5226,1873.1524 L -1883.4205,1873.1524 L -1883.4205,1866.6431 z M -2128.6993,1855.6454 C -2129.1021,1855.3998 -2129.6035,1854.8386 -2129.8134,1854.3984 C -2130.1452,1853.7027 -2130.1521,1853.5708 -2129.8666,1853.3903 C -2129.309,1853.0376 -2129.0425,1853.149 -2128.749,1853.8576 C -2128.4159,1854.6617 -2127.919,1854.9713 -2126.9614,1854.9713 C -2125.6389,1854.9713 -2124.7529,1853.4602 -2125.384,1852.281 C -2125.6522,1851.7798 -2126.9596,1851.309 -2127.5035,1851.5177 C -2127.8135,1851.6366 -2127.8786,1851.5638 -2127.8184,1851.1648 C -2127.7649,1850.8105 -2127.484,1850.5735 -2126.8671,1850.3625 C -2125.5363,1849.9072 -2125.2203,1849.0763 -2126.0591,1848.2376 C -2126.8944,1847.4023 -2128.6079,1847.9157 -2129.0099,1849.1218 C -2129.0759,1849.3198 -2129.2779,1849.3658 -2129.6136,1849.2593 C -2130.2509,1849.057 -2130.099,1848.403 -2129.1995,1847.4771 C -2128.3076,1846.559 -2126.7078,1846.4131 -2125.6274,1847.1514 C -2124.3883,1847.9982 -2124.1581,1849.5631 -2125.148,1850.4107 C -2125.5576,1850.7614 -2125.5464,1850.7969 -2124.8052,1851.4959 C -2122.4399,1853.7267 -2125.8633,1857.3745 -2128.6993,1855.6454 z M -2118.4985,1852.1771 C -2119.9124,1851.6728 -2120.6511,1850.9299 -2121.5231,1849.1354 C -2122.0432,1848.0651 -2122.1235,1847.6172 -2122.127,1845.7685 C -2122.1315,1843.4114 -2121.6697,1841.9952 -2120.4917,1840.7538 C -2119.1523,1839.3423 -2116.6649,1838.7027 -2114.6426,1839.2498 C -2113.4702,1839.5669 -2112.0593,1840.8357 -2111.5859,1841.9987 L -2111.2474,1842.8302 L -2112.0878,1843.0625 C -2112.5501,1843.1903 -2112.9539,1843.2201 -2112.9853,1843.1288 C -2113.2131,1842.4654 -2114.0545,1841.4264 -2114.6658,1841.0537 C -2116.2895,1840.0637 -2118.7759,1840.8291 -2119.7742,1842.6261 C -2120.2625,1843.5051 -2120.3354,1843.913 -2120.3354,1845.7685 C -2120.3354,1847.6241 -2120.2625,1848.032 -2119.7742,1848.9109 C -2119.0247,1850.2601 -2117.6379,1850.9997 -2116.1101,1850.8648 C -2114.7605,1850.7458 -2113.9857,1850.191 -2113.265,1848.8278 C -2112.7248,1847.806 -2112.6745,1847.7717 -2111.9182,1847.9098 C -2111.4862,1847.9886 -2111.1004,1848.0848 -2111.0609,1848.1236 C -2110.8233,1848.3568 -2112.1184,1850.6186 -2112.8462,1851.2415 C -2114.282,1852.4705 -2116.5999,1852.8542 -2118.4985,1852.1771 z M -2142.22,1845.7685 L -2142.22,1839.2593 L -2141.3222,1839.2593 L -2140.4243,1839.2593 L -2140.4243,1841.9528 L -2140.4243,1844.6463 L -2137.0575,1844.6463 L -2133.6906,1844.6463 L -2133.6906,1841.9528 L -2133.6906,1839.2593 L -2132.7928,1839.2593 L -2131.895,1839.2593 L -2131.895,1845.7685 L -2131.895,1852.2778 L -2132.7928,1852.2778 L -2133.6906,1852.2778 L -2133.6906,1849.2476 L -2133.6906,1846.2175 L -2137.0575,1846.2175 L -2140.4243,1846.2175 L -2140.4243,1849.2476 L -2140.4243,1852.2778 L -2141.3222,1852.2778 L -2142.22,1852.2778 L -2142.22,1845.7685 z M -1932.7479,1811.4272 C -1933.1507,1811.1816 -1933.652,1810.6205 -1933.862,1810.1803 C -1934.1937,1809.4846 -1934.2007,1809.3527 -1933.9152,1809.1721 C -1933.3575,1808.8194 -1933.0911,1808.9309 -1932.7976,1809.6395 C -1932.4645,1810.4436 -1931.9676,1810.7532 -1931.01,1810.7532 C -1929.6875,1810.7532 -1928.8014,1809.2421 -1929.4325,1808.0629 C -1929.7008,1807.5617 -1931.0082,1807.0909 -1931.5521,1807.2996 C -1931.8621,1807.4185 -1931.9271,1807.3456 -1931.8669,1806.9467 C -1931.8135,1806.5923 -1931.5326,1806.3554 -1930.9157,1806.1444 C -1929.5848,1805.689 -1929.2689,1804.8582 -1930.1076,1804.0194 C -1930.9429,1803.1842 -1932.6564,1803.6976 -1933.0585,1804.9037 C -1933.1244,1805.1017 -1933.3265,1805.1477 -1933.6621,1805.0412 C -1934.2995,1804.8389 -1934.1475,1804.1848 -1933.2481,1803.259 C -1932.3561,1802.3409 -1930.7564,1802.195 -1929.676,1802.9333 C -1928.4368,1803.7801 -1928.2067,1805.345 -1929.1966,1806.1926 C -1929.6062,1806.5433 -1929.595,1806.5787 -1928.8538,1807.2778 C -1926.4885,1809.5086 -1929.9118,1813.1564 -1932.7479,1811.4272 z M -1955.9912,1807.9589 C -1957.4051,1807.4547 -1958.1438,1806.7118 -1959.0158,1804.9173 C -1959.5359,1803.847 -1959.6162,1803.3991 -1959.6197,1801.5504 C -1959.6242,1799.1933 -1959.1624,1797.7771 -1957.9844,1796.5357 C -1956.6451,1795.1242 -1954.1577,1794.4846 -1952.1353,1795.0316 C -1950.963,1795.3488 -1949.5521,1796.6176 -1949.0786,1797.7805 L -1948.7401,1798.6121 L -1949.5806,1798.8444 C -1950.0428,1798.9721 -1950.4467,1799.002 -1950.478,1798.9107 C -1950.7059,1798.2472 -1951.5472,1797.2083 -1952.1585,1796.8356 C -1953.7822,1795.8456 -1956.2686,1796.6109 -1957.267,1798.408 C -1957.7553,1799.2869 -1957.8281,1799.6949 -1957.8281,1801.5504 C -1957.8281,1803.4059 -1957.7553,1803.8139 -1957.267,1804.6928 C -1956.5174,1806.042 -1955.1306,1806.7815 -1953.6028,1806.6467 C -1952.2532,1806.5276 -1951.4784,1805.9729 -1950.7577,1804.6096 C -1950.2175,1803.5878 -1950.1673,1803.5536 -1949.411,1803.6916 C -1948.9789,1803.7705 -1948.5931,1803.8667 -1948.5536,1803.9054 C -1948.3161,1804.1386 -1949.6112,1806.4004 -1950.3389,1807.0233 C -1951.7748,1808.2524 -1954.0927,1808.636 -1955.9912,1807.9589 z M -1946.2686,1801.5504 L -1946.2686,1795.0411 L -1945.3707,1795.0411 L -1944.4729,1795.0411 L -1944.4729,1797.7346 L -1944.4729,1800.4281 L -1941.106,1800.4281 L -1937.7392,1800.4281 L -1937.7392,1797.7346 L -1937.7392,1795.0411 L -1936.8414,1795.0411 L -1935.9435,1795.0411 L -1935.9435,1801.5504 L -1935.9435,1808.0597 L -1936.8414,1808.0597 L -1937.7392,1808.0597 L -1937.7392,1805.0295 L -1937.7392,1801.9993 L -1941.106,1801.9993 L -1944.4729,1801.9993 L -1944.4729,1805.0295 L -1944.4729,1808.0597 L -1945.3707,1808.0597 L -1946.2686,1808.0597 L -1946.2686,1801.5504 z M -2105.409,1793.021 L -2105.409,1786.5118 L -2104.5111,1786.5118 L -2103.6133,1786.5118 L -2103.6133,1789.2052 L -2103.6133,1791.8987 L -2100.2464,1791.8987 L -2096.8796,1791.8987 L -2096.8796,1789.2052 L -2096.8796,1786.5118 L -2095.9817,1786.5118 L -2095.0839,1786.5118 L -2095.0839,1793.021 L -2095.0839,1799.5303 L -2095.9817,1799.5303 L -2096.8796,1799.5303 L -2096.8796,1796.5001 L -2096.8796,1793.4699 L -2100.2464,1793.4699 L -2103.6133,1793.4699 L -2103.6133,1796.5001 L -2103.6133,1799.5303 L -2104.5111,1799.5303 L -2105.409,1799.5303 L -2105.409,1793.021 z M -2051.6978,1790.4649 C -2053.127,1789.9976 -2054.3527,1788.9016 -2055.0625,1787.4563 C -2055.6176,1786.3257 -2055.6916,1785.9243 -2055.6916,1784.0427 C -2055.6916,1782.1592 -2055.6179,1781.7603 -2055.0601,1780.6243 C -2053.7094,1777.8738 -2050.907,1776.7183 -2047.8202,1777.6392 C -2045.4417,1778.3488 -2043.9766,1780.4282 -2043.7507,1783.4148 C -2043.4376,1787.5553 -2045.6741,1790.4653 -2049.3404,1790.6878 C -2050.1696,1790.7381 -2051.1437,1790.646 -2051.6978,1790.4649 z M -2047.334,1788.3912 C -2046.2483,1787.5257 -2045.6898,1786.384 -2045.5391,1784.7221 C -2045.3081,1782.1741 -2046.2564,1780.1169 -2048.034,1779.3096 C -2050.3544,1778.2559 -2052.9508,1779.4413 -2053.6768,1781.8859 C -2054.8727,1785.9129 -2052.8723,1789.3624 -2049.4664,1789.1465 C -2048.4469,1789.0818 -2048.0034,1788.9247 -2047.334,1788.3912 z"
       id="path2595"
       style="fill:#000000" />
  </g>
</svg>
